# xmcd
#
# Track frame offsets:
#	182
#	18427
#	35255
#	51595
#
# Disc length: 922 seconds
#
# Revision: 0
# Processed by: cddbd v1.5.1PL0 Copyright (c) Steve Scherf et al.
# Submitted via: EasyCDDAExtractor 8.2.1.1
#
DISCID=2d039804
DTITLE=Take That - Back For Good CD 2
DYEAR=1995
DGENRE=Pop
TTITLE0=Back For Good (Radio Mix)
TTITLE1=Pray
TTITLE2=Why Can't I Wake Up With You
TTITLE3=Million Love Songs
EXTD=
EXTT0=
EXTT1=
EXTT2=
EXTT3=
PLAYORDER=
